<?xml version="1.0" encoding="UTF-8"?>
<!DOCTYPE svg PUBLIC "-//W3C//DTD SVG 1.1//EN" "http://www.w3.org/Graphics/SVG/1.1/DTD/svg11.dtd">
<svg version="1.2" width="119.73mm" height="211.28mm" viewBox="3236 5150 11973 21128" preserveAspectRatio="xMidYMid" fill-rule="evenodd" stroke-width="28.222" stroke-linejoin="round" xmlns="http://www.w3.org/2000/svg" xmlns:ooo="http://xml.openoffice.org/svg/export" xmlns:xlink="http://www.w3.org/1999/xlink" xmlns:presentation="http://sun.com/xmlns/staroffice/presentation" xmlns:smil="http://www.w3.org/2001/SMIL20/" xmlns:anim="urn:oasis:names:tc:opendocument:xmlns:animation:1.0" xmlns:svg="urn:oasis:names:tc:opendocument:xmlns:svg-compatible:1.0" xml:space="preserve">
 <defs class="EmbeddedBulletChars">
  <g id="bullet-char-template-57356" transform="scale(0.00048828125,-0.00048828125)">
   <path d="M 580,1141 L 1163,571 580,0 -4,571 580,1141 Z"/>
  </g>
  <g id="bullet-char-template-57354" transform="scale(0.00048828125,-0.00048828125)">
   <path d="M 8,1128 L 1137,1128 1137,0 8,0 8,1128 Z"/>
  </g>
  <g id="bullet-char-template-10146" transform="scale(0.00048828125,-0.00048828125)">
   <path d="M 174,0 L 602,739 174,1481 1456,739 174,0 Z M 1358,739 L 309,1346 659,739 1358,739 Z"/>
  </g>
  <g id="bullet-char-template-10132" transform="scale(0.00048828125,-0.00048828125)">
   <path d="M 2015,739 L 1276,0 717,0 1260,543 174,543 174,936 1260,936 717,1481 1274,1481 2015,739 Z"/>
  </g>
  <g id="bullet-char-template-10007" transform="scale(0.00048828125,-0.00048828125)">
   <path d="M 0,-2 C -7,14 -16,27 -25,37 L 356,567 C 262,823 215,952 215,954 215,979 228,992 255,992 264,992 276,990 289,987 310,991 331,999 354,1012 L 381,999 492,748 772,1049 836,1024 860,1049 C 881,1039 901,1025 922,1006 886,937 835,863 770,784 769,783 710,716 594,584 L 774,223 C 774,196 753,168 711,139 L 727,119 C 717,90 699,76 672,76 641,76 570,178 457,381 L 164,-76 C 142,-110 111,-127 72,-127 30,-127 9,-110 8,-76 1,-67 -2,-52 -2,-32 -2,-23 -1,-13 0,-2 Z"/>
  </g>
  <g id="bullet-char-template-10004" transform="scale(0.00048828125,-0.00048828125)">
   <path d="M 285,-33 C 182,-33 111,30 74,156 52,228 41,333 41,471 41,549 55,616 82,672 116,743 169,778 240,778 293,778 328,747 346,684 L 369,508 C 377,444 397,411 428,410 L 1163,1116 C 1174,1127 1196,1133 1229,1133 1271,1133 1292,1118 1292,1087 L 1292,965 C 1292,929 1282,901 1262,881 L 442,47 C 390,-6 338,-33 285,-33 Z"/>
  </g>
  <g id="bullet-char-template-9679" transform="scale(0.00048828125,-0.00048828125)">
   <path d="M 813,0 C 632,0 489,54 383,161 276,268 223,411 223,592 223,773 276,916 383,1023 489,1130 632,1184 813,1184 992,1184 1136,1130 1245,1023 1353,916 1407,772 1407,592 1407,412 1353,268 1245,161 1136,54 992,0 813,0 Z"/>
  </g>
  <g id="bullet-char-template-8226" transform="scale(0.00048828125,-0.00048828125)">
   <path d="M 346,457 C 273,457 209,483 155,535 101,586 74,649 74,723 74,796 101,859 155,911 209,963 273,989 346,989 419,989 480,963 531,910 582,859 608,796 608,723 608,648 583,586 532,535 482,483 420,457 346,457 Z"/>
  </g>
  <g id="bullet-char-template-8211" transform="scale(0.00048828125,-0.00048828125)">
   <path d="M -4,459 L 1135,459 1135,606 -4,606 -4,459 Z"/>
  </g>
  <g id="bullet-char-template-61548" transform="scale(0.00048828125,-0.00048828125)">
   <path d="M 173,740 C 173,903 231,1043 346,1159 462,1274 601,1332 765,1332 928,1332 1067,1274 1183,1159 1299,1043 1357,903 1357,740 1357,577 1299,437 1183,322 1067,206 928,148 765,148 601,148 462,206 346,322 231,437 173,577 173,740 Z"/>
  </g>
 </defs>
 <g class="Page">
  <g class="com.sun.star.drawing.ClosedBezierShape">
   <g id="id3">
    <rect class="BoundingBox" stroke="none" fill="none" x="3236" y="5150" width="11973" height="21128"/>
    <path fill="rgb(73,94,87)" stroke="none" d="M 6199,5151 C 6212,5151 6226,5151 6240,5151 6253,5165 6267,5178 6281,5192 6281,5247 6281,5302 6281,5357 6253,5384 6226,5412 6199,5439 6171,5439 6144,5439 6117,5439 6117,5837 6117,6236 6117,6634 6144,6634 6171,6634 6199,6634 6226,6661 6253,6689 6281,6716 6281,6771 6281,6826 6281,6881 6267,6895 6253,6908 6240,6922 6007,6922 5774,6922 5541,6922 5527,6908 5513,6895 5500,6881 5500,6826 5500,6771 5500,6716 5513,6702 5527,6689 5541,6675 5568,6661 5595,6648 5623,6634 5636,6634 5650,6634 5664,6634 5664,6428 5664,6222 5664,6016 5677,6002 5691,5989 5705,5975 5705,5961 5705,5947 5705,5933 5691,5919 5677,5906 5664,5892 5664,5741 5664,5590 5664,5439 5636,5439 5609,5439 5582,5439 5554,5412 5527,5384 5500,5357 5500,5316 5500,5274 5500,5233 5513,5219 5527,5206 5541,5192 5746,5192 5952,5192 6158,5192 6171,5178 6185,5165 6199,5151 Z M 7063,5151 C 7076,5165 7090,5178 7104,5192 7172,5192 7241,5192 7310,5192 7323,5178 7337,5165 7351,5151 7392,5151 7433,5151 7474,5151 7487,5165 7501,5178 7515,5192 7666,5192 7817,5192 7968,5192 7981,5178 7995,5165 8009,5151 8132,5151 8255,5151 8379,5151 8406,5178 8433,5206 8461,5233 8475,5261 8489,5288 8503,5316 8503,5453 8503,5591 8503,5728 8475,5755 8447,5783 8420,5810 8379,5810 8338,5810 8297,5810 8269,5783 8242,5755 8215,5728 8187,5659 8159,5591 8132,5522 8132,5508 8132,5494 8132,5480 8077,5480 8022,5480 7968,5480 7968,5782 7968,6084 7968,6386 7954,6400 7940,6414 7927,6428 7927,6455 7927,6483 7927,6510 7995,6579 8063,6647 8132,6716 8132,6771 8132,6826 8132,6881 8118,6895 8104,6908 8091,6922 7844,6922 7597,6922 7351,6922 7337,6908 7323,6895 7310,6881 7310,6826 7310,6771 7310,6716 7323,6702 7337,6689 7351,6675 7364,6675 7378,6675 7392,6675 7433,6661 7474,6648 7515,6634 7515,6249 7515,5865 7515,5480 7460,5480 7405,5480 7351,5480 7337,5494 7323,5508 7310,5522 7310,5536 7310,5549 7310,5563 7282,5618 7254,5673 7227,5728 7199,5755 7172,5783 7145,5810 7104,5810 7063,5810 7022,5810 7008,5796 6994,5783 6980,5769 6980,5590 6980,5412 6980,5233 7007,5206 7035,5178 7063,5151 Z M 9202,5151 C 9215,5151 9229,5151 9243,5151 9256,5165 9270,5178 9283,5192 9311,5192 9338,5192 9365,5192 9379,5178 9393,5165 9407,5151 9476,5151 9544,5151 9612,5151 9626,5165 9640,5178 9653,5192 9832,5192 10010,5192 10188,5192 10202,5178 10216,5165 10229,5151 10243,5151 10257,5151 10270,5151 10284,5165 10298,5178 10312,5192 10408,5192 10504,5192 10600,5192 10614,5206 10628,5219 10641,5233 10641,5412 10641,5590 10641,5769 10628,5783 10614,5796 10600,5810 10573,5810 10545,5810 10517,5810 10490,5796 10463,5783 10435,5769 10422,5755 10408,5742 10394,5728 10381,5700 10367,5673 10353,5645 10340,5604 10326,5563 10312,5522 10312,5508 10312,5494 10312,5480 10244,5480 10175,5480 10106,5480 10106,5865 10106,6249 10106,6634 10120,6634 10134,6634 10147,6634 10188,6648 10229,6661 10270,6675 10284,6689 10298,6702 10312,6716 10312,6757 10312,6798 10312,6839 10285,6867 10257,6894 10229,6922 9996,6922 9763,6922 9530,6922 9517,6908 9503,6895 9489,6881 9489,6826 9489,6771 9489,6716 9503,6702 9517,6689 9530,6675 9558,6661 9585,6648 9612,6634 9626,6634 9640,6634 9653,6634 9667,6620 9681,6606 9695,6592 9695,6565 9695,6537 9695,6510 9681,6496 9667,6483 9653,6469 9653,6400 9653,6332 9653,6263 9667,6249 9681,6236 9695,6222 9695,6030 9695,5837 9695,5645 9681,5590 9667,5535 9653,5480 9599,5480 9544,5480 9489,5480 9476,5508 9462,5535 9448,5563 9435,5604 9421,5645 9407,5686 9407,5700 9407,5714 9407,5728 9380,5755 9352,5783 9324,5810 9297,5810 9270,5810 9243,5810 9215,5796 9188,5783 9161,5769 9147,5755 9133,5742 9120,5728 9120,5604 9120,5481 9120,5357 9133,5302 9147,5247 9161,5192 9174,5178 9188,5165 9202,5151 Z M 12039,5151 C 12067,5151 12095,5151 12122,5151 12150,5178 12177,5206 12204,5233 12191,5274 12177,5316 12163,5357 12136,5384 12108,5412 12080,5439 12039,5439 11998,5439 11957,5439 11944,5480 11930,5522 11916,5563 11916,5645 11916,5728 11916,5810 11930,5824 11944,5837 11957,5851 11957,5906 11957,5961 11957,6016 11944,6030 11930,6043 11916,6057 11916,6112 11916,6167 11916,6222 11930,6359 11944,6497 11957,6634 11985,6634 12012,6634 12039,6634 12053,6620 12067,6606 12080,6592 12163,6592 12245,6592 12327,6592 12341,6578 12355,6565 12368,6551 12368,6537 12368,6524 12368,6510 12382,6469 12396,6427 12410,6386 12465,6331 12520,6277 12574,6222 12602,6222 12629,6222 12656,6222 12684,6249 12712,6277 12739,6304 12739,6414 12739,6524 12739,6634 12726,6702 12712,6771 12698,6839 12671,6867 12643,6894 12615,6922 12286,6922 11957,6922 11628,6922 11615,6908 11601,6895 11587,6881 11574,6881 11560,6881 11546,6881 11533,6895 11519,6908 11505,6922 11464,6922 11423,6922 11381,6922 11368,6908 11354,6895 11340,6881 11340,6826 11340,6771 11340,6716 11354,6702 11368,6689 11381,6675 11409,6661 11436,6648 11463,6634 11477,6634 11491,6634 11505,6634 11505,6236 11505,5837 11505,5439 11464,5439 11423,5439 11381,5439 11368,5425 11354,5412 11340,5398 11340,5343 11340,5288 11340,5233 11354,5219 11368,5206 11381,5192 11587,5192 11793,5192 11998,5192 12012,5178 12026,5165 12039,5151 Z M 13561,5151 C 13643,5151 13726,5151 13808,5151 13822,5165 13835,5178 13849,5192 13877,5192 13904,5192 13932,5192 13946,5178 13959,5165 13973,5151 14014,5151 14055,5151 14096,5151 14110,5165 14123,5178 14137,5192 14343,5192 14548,5192 14754,5192 14768,5206 14781,5219 14795,5233 14809,5315 14823,5398 14837,5480 14823,5549 14809,5617 14795,5686 14781,5700 14768,5714 14754,5728 14699,5728 14645,5728 14590,5728 14576,5714 14563,5700 14549,5686 14549,5672 14549,5659 14549,5645 14521,5590 14494,5535 14466,5480 14329,5480 14192,5480 14055,5480 14055,5604 14055,5727 14055,5851 14206,5851 14357,5851 14508,5851 14535,5878 14563,5906 14590,5933 14590,5947 14590,5961 14590,5975 14576,6030 14563,6084 14549,6139 14535,6153 14522,6167 14508,6181 14357,6181 14206,6181 14055,6181 14055,6318 14055,6455 14055,6592 14192,6592 14329,6592 14466,6592 14480,6578 14494,6565 14508,6551 14508,6537 14508,6524 14508,6510 14522,6483 14535,6455 14549,6428 14590,6387 14631,6345 14672,6304 14727,6304 14782,6304 14837,6304 14851,6318 14864,6331 14878,6345 14878,6400 14878,6455 14878,6510 14864,6606 14851,6702 14837,6798 14823,6826 14809,6853 14795,6881 14781,6895 14768,6908 14754,6922 14658,6922 14562,6922 14466,6922 14452,6908 14439,6895 14425,6881 14384,6881 14343,6881 14302,6881 14288,6895 14275,6908 14261,6922 14000,6922 13740,6922 13479,6922 13465,6908 13452,6895 13438,6881 13438,6826 13438,6771 13438,6716 13452,6702 13465,6689 13479,6675 13493,6675 13506,6675 13520,6675 13548,6661 13575,6648 13603,6634 13603,6236 13603,5837 13603,5439 13589,5439 13575,5439 13561,5439 13534,5425 13506,5412 13479,5398 13465,5384 13452,5371 13438,5357 13438,5316 13438,5274 13438,5233 13452,5219 13465,5206 13479,5192 13506,5178 13534,5165 13561,5151 Z M 3443,5192 C 3703,5192 3964,5192 4224,5192 4238,5206 4251,5219 4265,5233 4265,5247 4265,5261 4265,5275 4251,5302 4238,5330 4224,5357 4197,5384 4169,5412 4142,5439 4101,5439 4060,5439 4019,5439 4019,5823 4019,6208 4019,6592 4142,6592 4266,6592 4389,6592 4403,6578 4416,6565 4430,6551 4457,6510 4485,6469 4512,6428 4526,6400 4539,6373 4553,6345 4553,6331 4553,6318 4553,6304 4581,6277 4608,6249 4636,6222 4677,6222 4718,6222 4759,6222 4786,6249 4814,6277 4841,6304 4841,6318 4841,6331 4841,6345 4827,6359 4814,6372 4800,6386 4800,6496 4800,6606 4800,6716 4786,6757 4773,6798 4759,6839 4732,6867 4704,6894 4677,6922 4279,6922 3882,6922 3484,6922 3457,6894 3429,6867 3402,6839 3402,6798 3402,6757 3402,6716 3416,6702 3429,6689 3443,6675 3470,6661 3498,6648 3525,6634 3539,6634 3552,6634 3566,6634 3566,6236 3566,5837 3566,5439 3539,5439 3511,5439 3484,5439 3457,5412 3429,5384 3402,5357 3402,5316 3402,5274 3402,5233 3416,5219 3429,5206 3443,5192 Z M 3402,8651 C 3566,8651 3731,8651 3895,8651 3909,8665 3922,8679 3936,8693 3964,8693 3991,8693 4019,8693 4033,8679 4046,8665 4060,8651 4115,8651 4169,8651 4224,8651 4238,8665 4251,8679 4265,8693 4663,8693 5060,8693 5458,8693 5472,8679 5486,8665 5500,8651 5513,8651 5527,8651 5541,8651 5554,8665 5568,8679 5582,8693 5650,8693 5718,8693 5787,8693 5801,8679 5815,8665 5829,8651 5842,8651 5856,8651 5870,8651 5883,8665 5897,8679 5911,8693 6157,8693 6404,8693 6651,8693 6665,8679 6679,8665 6693,8651 6706,8651 6720,8651 6734,8651 6747,8665 6761,8679 6775,8693 6829,8693 6884,8693 6939,8693 6952,8679 6966,8665 6980,8651 7035,8651 7090,8651 7145,8651 7158,8665 7172,8679 7186,8693 7213,8693 7240,8693 7268,8693 7282,8679 7296,8665 7310,8651 7529,8651 7748,8651 7968,8651 7981,8665 7995,8679 8009,8693 8063,8693 8118,8693 8173,8693 8187,8679 8201,8665 8215,8651 8269,8651 8324,8651 8379,8651 8392,8665 8406,8679 8420,8693 8625,8693 8831,8693 9037,8693 9050,8679 9064,8665 9078,8651 9133,8651 9188,8651 9243,8651 9256,8665 9270,8679 9283,8693 9393,8693 9503,8693 9612,8693 9626,8679 9640,8665 9653,8651 9749,8651 9845,8651 9941,8651 9955,8665 9969,8679 9982,8693 10051,8693 10120,8693 10188,8693 10202,8679 10216,8665 10229,8651 10284,8651 10339,8651 10394,8651 10408,8665 10422,8679 10435,8693 10751,8693 11066,8693 11381,8693 11395,8679 11409,8665 11422,8651 11518,8651 11614,8651 11710,8651 11724,8665 11738,8679 11751,8693 11806,8693 11861,8693 11916,8693 11930,8679 11944,8665 11957,8651 12396,8651 12835,8651 13273,8651 13287,8665 13301,8679 13315,8693 13479,8693 13644,8693 13808,8693 13822,8679 13835,8665 13849,8651 13904,8651 13959,8651 14014,8651 14028,8665 14041,8679 14055,8693 14082,8693 14110,8693 14137,8693 14151,8679 14164,8665 14178,8651 14288,8651 14398,8651 14508,8651 14522,8665 14535,8679 14549,8693 14590,8693 14631,8693 14672,8693 14686,8679 14699,8665 14713,8651 14768,8651 14823,8651 14878,8651 14933,8665 14987,8679 15042,8693 15070,8720 15097,8747 15125,8775 15152,8857 15180,8939 15207,9022 15207,9049 15207,9076 15207,9104 15193,9118 15180,9132 15166,9146 15152,9146 15139,9146 15125,9146 15125,9297 15125,9448 15125,9599 15152,9626 15180,9653 15207,9681 15207,9763 15207,9845 15207,9928 15180,9955 15152,9982 15125,10010 15125,10106 15125,10202 15125,10299 15152,10326 15180,10353 15207,10381 15207,10463 15207,10545 15207,10628 15193,10641 15180,10655 15166,10669 15152,10669 15139,10669 15125,10669 15125,11094 15125,11520 15125,11946 15152,11973 15180,12000 15207,12028 15207,12083 15207,12138 15207,12193 15193,12206 15180,12220 15166,12234 15152,12234 15139,12234 15125,12234 15125,12563 15125,12892 15125,13222 15139,13222 15152,13222 15166,13222 15180,13236 15193,13250 15207,13264 15207,13360 15207,13456 15207,13552 15193,13565 15180,13579 15166,13593 15152,13593 15139,13593 15125,13593 15125,13648 15125,13703 15125,13758 15152,13785 15180,13812 15207,13840 15207,13922 15207,14004 15207,14087 15180,14114 15152,14142 15125,14170 15125,14293 15125,14416 15125,14540 15152,14567 15180,14595 15207,14623 15207,14650 15207,14677 15207,14705 15180,14732 15152,14759 15125,14787 15125,14952 15125,15117 15125,15282 15152,15309 15180,15336 15207,15364 15207,15583 15207,15803 15207,16022 15193,16036 15180,16050 15166,16063 15152,16063 15139,16063 15125,16063 15125,16420 15125,16777 15125,17134 15152,17162 15180,17189 15207,17216 15207,17258 15207,17299 15207,17340 15180,17368 15152,17395 15125,17422 15125,17463 15125,17504 15125,17545 15152,17573 15180,17601 15207,17628 15207,17711 15207,17793 15207,17875 15180,17903 15152,17930 15125,17957 15125,18287 15125,18617 15125,18946 15139,18960 15152,18974 15166,18987 15166,19001 15166,19015 15166,19028 15152,19042 15139,19056 15125,19069 15125,19536 15125,20003 15125,20469 15084,20511 15042,20552 15001,20593 14960,20593 14919,20593 14878,20593 14837,20552 14795,20511 14754,20469 14754,19605 14754,18740 14754,17875 14768,17862 14781,17848 14795,17834 14795,17793 14795,17752 14795,17710 14781,17697 14768,17683 14754,17669 14754,17560 14754,17450 14754,17340 14768,17326 14781,17312 14795,17298 14795,17285 14795,17271 14795,17257 14781,17244 14768,17230 14754,17216 14754,16805 14754,16393 14754,15981 14768,15967 14781,15953 14795,15939 14795,15898 14795,15857 14795,15816 14781,15803 14768,15789 14754,15775 14754,15734 14754,15693 14754,15652 14768,15638 14781,15624 14795,15611 14795,15542 14795,15473 14795,15405 14781,15364 14768,15323 14754,15282 14740,15268 14727,15254 14713,15240 14713,15226 14713,15212 14713,15199 14727,15185 14740,15171 14754,15158 14754,14801 14754,14444 14754,14087 14768,14073 14781,14059 14795,14046 14795,13991 14795,13936 14795,13881 14781,13867 14768,13853 14754,13840 14754,13730 14754,13620 14754,13511 14768,13497 14781,13483 14795,13470 14795,13428 14795,13387 14795,13346 14781,13332 14768,13318 14754,13305 14754,12536 14754,11767 14754,10999 14740,10985 14727,10971 14713,10958 14713,10944 14713,10930 14713,10916 14727,10902 14740,10888 14754,10875 14754,10779 14754,10683 14754,10587 14768,10573 14781,10559 14795,10546 14795,10518 14795,10490 14795,10463 14781,10449 14768,10435 14754,10422 14754,10243 14754,10065 14754,9887 14768,9873 14781,9859 14795,9846 14781,9585 14768,9324 14754,9063 14644,9049 14535,9035 14425,9022 14370,9022 14316,9022 14261,9022 14247,9035 14234,9049 14220,9063 13808,9063 13397,9063 12985,9063 12972,9049 12958,9035 12944,9022 12903,9022 12862,9022 12821,9022 12808,9035 12794,9049 12780,9063 12739,9063 12698,9063 12656,9063 12643,9049 12629,9035 12615,9022 12561,9022 12506,9022 12451,9022 12438,9035 12424,9049 12410,9063 12150,9063 11889,9063 11628,9063 11615,9049 11601,9035 11587,9022 11560,9022 11533,9022 11505,9022 11491,9035 11477,9049 11463,9063 10929,9063 10394,9063 9859,9063 9846,9049 9832,9035 9818,9022 9805,9022 9791,9022 9777,9022 9764,9035 9750,9049 9736,9063 9133,9063 8530,9063 7927,9063 7913,9049 7899,9035 7885,9022 7830,9022 7775,9022 7721,9022 7707,9035 7693,9049 7680,9063 6295,9063 4910,9063 3525,9063 3470,9049 3415,9035 3360,9022 3346,9008 3333,8994 3319,8981 3305,8953 3292,8925 3278,8898 3278,8857 3278,8816 3278,8775 3319,8733 3361,8692 3402,8651 Z M 3402,10710 C 3457,10710 3511,10710 3566,10710 3593,10737 3621,10765 3648,10793 3648,11012 3648,11232 3648,11452 3662,11465 3676,11479 3690,11493 3690,11561 3690,11630 3690,11699 3676,11712 3662,11726 3648,11740 3648,11987 3648,12234 3648,12481 3662,12494 3676,12508 3690,12522 3690,12577 3690,12632 3690,12687 3676,12700 3662,12714 3648,12728 3648,12947 3648,13167 3648,13387 3662,13400 3676,13414 3690,13428 3690,13455 3690,13483 3690,13511 3676,13524 3662,13538 3648,13552 3648,14485 3648,15418 3648,16351 3662,16365 3676,16379 3690,16392 3690,16420 3690,16448 3690,16475 3676,16489 3662,16503 3648,16516 3648,16626 3648,16736 3648,16845 3662,16859 3676,16873 3690,16887 3690,16928 3690,16969 3690,17010 3676,17024 3662,17038 3648,17051 3648,17504 3648,17957 3648,18410 3662,18424 3676,18438 3690,18451 3690,18465 3690,18479 3690,18493 3676,18507 3662,18521 3648,18534 3648,18589 3648,18644 3648,18699 3662,18713 3676,18727 3690,18740 3690,18781 3690,18822 3690,18863 3676,18877 3662,18891 3648,18904 3648,20016 3648,21128 3648,22240 3909,22240 4169,22240 4430,22240 4444,22227 4457,22213 4471,22199 4485,22199 4498,22199 4512,22199 4526,22213 4539,22227 4553,22240 4608,22240 4663,22240 4718,22240 4732,22227 4745,22213 4759,22199 4869,22199 4978,22199 5088,22199 5102,22213 5115,22227 5129,22240 5239,22240 5348,22240 5458,22240 5472,22227 5486,22213 5500,22199 5527,22199 5554,22199 5582,22199 5595,22213 5609,22227 5623,22240 5952,22240 6281,22240 6610,22240 6623,22227 6637,22213 6651,22199 6706,22199 6761,22199 6816,22199 6829,22213 6843,22227 6857,22240 6898,22240 6939,22240 6980,22240 6994,22227 7008,22213 7022,22199 7118,22199 7214,22199 7310,22199 7378,22213 7446,22227 7515,22240 7528,22254 7542,22268 7556,22281 7570,22281 7584,22281 7598,22281 7611,22268 7625,22254 7639,22240 7872,22240 8105,22240 8338,22240 8351,22227 8365,22213 8379,22199 8434,22199 8489,22199 8544,22199 8557,22213 8571,22227 8585,22240 8667,22240 8749,22240 8832,22240 8845,22227 8859,22213 8873,22199 8941,22199 9009,22199 9078,22199 9092,22213 9106,22227 9120,22240 9147,22240 9174,22240 9202,22240 9215,22227 9229,22213 9243,22199 9270,22199 9297,22199 9324,22199 9338,22213 9352,22227 9365,22240 9544,22240 9722,22240 9900,22240 9914,22254 9928,22268 9941,22281 9969,22281 9997,22281 10024,22281 10038,22268 10052,22254 10065,22240 10189,22227 10312,22213 10435,22199 10668,22199 10901,22199 11134,22199 11148,22213 11162,22227 11175,22240 11189,22240 11203,22240 11217,22240 11231,22227 11245,22213 11258,22199 11313,22199 11368,22199 11422,22199 11436,22213 11450,22227 11463,22240 11518,22240 11573,22240 11628,22240 11642,22227 11656,22213 11669,22199 11697,22199 11724,22199 11751,22199 11765,22213 11779,22227 11792,22240 11847,22240 11902,22240 11957,22240 11971,22227 11985,22213 11998,22199 12040,22199 12081,22199 12122,22199 12136,22213 12150,22227 12163,22240 12218,22240 12273,22240 12327,22240 12341,22227 12355,22213 12368,22199 12382,22199 12396,22199 12410,22199 12424,22213 12438,22227 12451,22240 12794,22240 13137,22240 13479,22240 13493,22227 13506,22213 13520,22199 13616,22199 13712,22199 13808,22199 13822,22213 13835,22227 13849,22240 14014,22240 14178,22240 14343,22240 14357,22227 14370,22213 14384,22199 14562,22213 14741,22227 14919,22240 14960,22254 15001,22268 15042,22281 15070,22309 15097,22337 15125,22364 15125,22419 15125,22474 15125,22528 15097,22556 15070,22584 15042,22611 15015,22625 14987,22639 14960,22652 14946,22652 14933,22652 14919,22652 14905,22639 14892,22625 14878,22611 14508,22611 14137,22611 13767,22611 13753,22598 13740,22584 13726,22570 13685,22570 13644,22570 13603,22570 13589,22584 13575,22598 13561,22611 13520,22625 13479,22639 13438,22652 13424,22652 13411,22652 13397,22652 13383,22639 13370,22625 13356,22611 13164,22611 12972,22611 12780,22611 12767,22625 12753,22639 12739,22652 12684,22652 12629,22652 12574,22652 12561,22639 12547,22625 12533,22611 12040,22611 11546,22611 11052,22611 11039,22598 11025,22584 11011,22570 10998,22570 10984,22570 10970,22570 10957,22584 10943,22598 10929,22611 10682,22611 10435,22611 10188,22611 10175,22625 10161,22639 10147,22652 10051,22652 9955,22652 9859,22652 9846,22639 9832,22625 9818,22611 9106,22611 8393,22611 7680,22611 7666,22625 7652,22639 7639,22652 7597,22652 7556,22652 7515,22652 7432,22639 7350,22625 7268,22611 6486,22611 5705,22611 4924,22611 4910,22598 4896,22584 4882,22570 4868,22570 4855,22570 4841,22570 4827,22584 4814,22598 4800,22611 4334,22611 3868,22611 3402,22611 3361,22570 3319,22529 3278,22487 3278,22007 3278,21527 3278,21046 3264,21033 3251,21019 3237,21005 3237,20950 3237,20895 3237,20840 3251,20827 3264,20813 3278,20799 3278,20333 3278,19866 3278,19399 3264,19385 3251,19371 3237,19357 3237,19330 3237,19303 3237,19275 3251,19262 3264,19248 3278,19234 3278,18781 3278,18328 3278,17875 3264,17862 3251,17848 3237,17834 3237,17779 3237,17724 3237,17669 3251,17656 3264,17642 3278,17628 3278,17615 3278,17601 3278,17587 3264,17573 3251,17559 3237,17545 3237,17504 3237,17463 3237,17422 3251,17409 3264,17395 3278,17381 3278,17024 3278,16667 3278,16310 3264,16297 3251,16283 3237,16269 3237,16242 3237,16214 3237,16186 3251,16173 3264,16159 3278,16145 3278,15693 3278,15240 3278,14787 3264,14773 3251,14759 3237,14746 3237,14705 3237,14664 3237,14623 3251,14609 3264,14595 3278,14581 3278,13606 3278,12632 3278,11658 3292,11644 3305,11630 3319,11616 3319,11588 3319,11561 3319,11534 3305,11520 3292,11506 3278,11493 3278,11273 3278,11053 3278,10834 3319,10792 3361,10751 3402,10710 Z M 9243,11122 C 9448,11122 9654,11122 9859,11122 10202,11232 10545,11342 10887,11452 10929,11493 10970,11534 11011,11575 11025,11616 11039,11657 11052,11699 11052,11712 11052,11726 11052,11740 11025,11767 10998,11794 10970,11822 10915,11863 10860,11904 10805,11946 10709,11987 10613,12028 10517,12069 10202,12151 9887,12233 9571,12316 9626,12371 9681,12426 9736,12481 9791,12508 9846,12536 9900,12564 10065,12673 10230,12783 10394,12893 10531,13016 10668,13140 10805,13264 10847,13318 10888,13373 10929,13428 10929,13442 10929,13456 10929,13470 10957,13497 10984,13524 11011,13552 11025,13552 11039,13552 11052,13552 11066,13565 11080,13579 11093,13593 11093,13606 11093,13620 11093,13634 11107,13661 11121,13689 11134,13717 11189,13799 11244,13881 11299,13964 11313,14005 11327,14046 11340,14087 11354,14114 11368,14142 11381,14170 11409,14197 11436,14224 11463,14252 11491,14307 11519,14362 11546,14417 11628,14677 11710,14938 11792,15199 11820,15501 11848,15802 11875,16104 11862,16200 11848,16296 11834,16392 11820,16406 11806,16420 11792,16434 11792,16448 11792,16462 11792,16475 11806,16489 11820,16503 11834,16516 11834,16557 11834,16598 11834,16639 11779,16928 11724,17216 11669,17504 11560,17834 11450,18164 11340,18493 11327,18521 11313,18548 11299,18575 11272,18603 11245,18630 11217,18657 11203,18685 11189,18713 11175,18740 11148,18836 11121,18932 11093,19028 11052,19083 11011,19138 10970,19193 10957,19221 10943,19248 10929,19275 10902,19371 10874,19467 10846,19563 10833,19714 10819,19865 10805,20016 10778,20044 10751,20072 10723,20099 10614,20099 10504,20099 10394,20099 10339,20044 10284,19989 10229,19934 10202,19921 10175,19907 10147,19893 10134,19893 10120,19893 10106,19893 10079,19866 10052,19838 10024,19810 10024,19797 10024,19783 10024,19769 10010,19756 9996,19742 9982,19728 9969,19728 9955,19728 9941,19728 9887,19715 9832,19701 9777,19687 9736,19660 9695,19633 9653,19605 9379,19509 9106,19413 8832,19316 8777,19289 8722,19262 8667,19234 8626,19207 8585,19180 8544,19152 8516,19125 8488,19097 8461,19069 8461,19056 8461,19042 8461,19028 8420,18987 8379,18946 8338,18904 8324,18904 8310,18904 8297,18904 8255,18877 8214,18850 8173,18822 8008,18644 7844,18466 7680,18287 7680,18274 7680,18260 7680,18246 7652,18219 7625,18191 7598,18163 7584,18163 7570,18163 7556,18163 7542,18150 7528,18136 7515,18122 7419,17958 7323,17793 7227,17628 7186,17587 7145,17546 7104,17504 7076,17463 7049,17422 7022,17381 7022,17368 7022,17354 7022,17340 7008,17313 6994,17285 6980,17257 6952,17230 6925,17203 6898,17175 6802,16832 6706,16489 6610,16145 6596,15994 6582,15843 6569,15693 6582,15679 6596,15665 6610,15652 6610,15597 6610,15542 6610,15487 6596,15473 6582,15459 6569,15446 6555,15391 6541,15336 6528,15282 6528,15268 6528,15254 6528,15240 6541,15226 6555,15212 6569,15199 6569,15103 6569,15007 6569,14911 6582,14897 6596,14883 6610,14870 6610,14842 6610,14814 6610,14787 6596,14773 6582,14759 6569,14746 6569,14718 6569,14691 6569,14664 6582,14650 6596,14636 6610,14623 6665,14499 6720,14375 6775,14252 6775,14210 6775,14169 6775,14128 6788,14073 6802,14018 6816,13964 6829,13936 6843,13908 6857,13881 6898,13840 6939,13799 6980,13758 7131,13401 7282,13044 7433,12687 7474,12453 7515,12220 7556,11987 7570,11959 7584,11932 7598,11905 7652,11850 7707,11795 7762,11740 7803,11712 7844,11685 7885,11658 7899,11658 7913,11658 7927,11658 7940,11671 7954,11685 7968,11699 7968,11712 7968,11726 7968,11740 7940,11767 7912,11794 7885,11822 7857,11877 7830,11932 7803,11987 7720,12234 7638,12481 7556,12728 7556,12810 7556,12892 7556,12975 7583,13085 7611,13195 7639,13305 7652,13332 7666,13359 7680,13387 7721,13442 7762,13497 7803,13552 7844,13620 7885,13689 7927,13758 7940,13771 7954,13785 7968,13799 8009,13826 8050,13853 8091,13881 8104,13881 8118,13881 8132,13881 8187,13908 8242,13936 8297,13964 8324,13991 8351,14018 8379,14046 8749,14224 9119,14402 9489,14581 9544,14567 9599,14553 9653,14540 9667,14526 9681,14512 9695,14499 9709,14471 9723,14444 9736,14417 9723,14142 9709,13867 9695,13593 9668,13428 9640,13263 9612,13099 9599,13057 9585,13016 9571,12975 9517,12865 9462,12755 9407,12646 9229,12467 9051,12289 8873,12111 8859,12111 8845,12111 8832,12111 8804,12083 8776,12055 8749,12028 8749,12014 8749,12000 8749,11987 8708,11945 8667,11904 8626,11863 8612,11863 8598,11863 8585,11863 8543,11822 8502,11781 8461,11740 8447,11712 8433,11685 8420,11658 8433,11644 8447,11630 8461,11616 8858,11616 9256,11616 9653,11616 9667,11602 9681,11588 9695,11575 9750,11575 9805,11575 9859,11575 9873,11588 9887,11602 9900,11616 9955,11616 10010,11616 10065,11616 10079,11602 10093,11588 10106,11575 10051,11561 9996,11547 9941,11534 9845,11520 9749,11506 9653,11493 9448,11493 9242,11493 9037,11493 8900,11506 8763,11520 8626,11534 8571,11547 8516,11561 8461,11575 8433,11588 8406,11602 8379,11616 8365,11630 8351,11644 8338,11658 8324,11644 8310,11630 8297,11616 8365,11547 8434,11479 8503,11411 8749,11314 8996,11218 9243,11122 Z M 8215,11699 C 8256,11712 8297,11726 8338,11740 8502,11904 8667,12069 8832,12234 8845,12234 8859,12234 8873,12234 8900,12261 8927,12288 8955,12316 8955,12330 8955,12344 8955,12358 9092,12495 9229,12632 9365,12769 9365,12783 9365,12797 9365,12811 9379,12852 9393,12893 9407,12934 9435,12961 9462,12989 9489,13017 9517,13181 9544,13346 9571,13511 9571,13703 9571,13895 9571,14087 9585,14155 9599,14224 9612,14293 9626,14306 9640,14320 9653,14334 9653,14348 9653,14362 9653,14376 9626,14403 9599,14430 9571,14458 9544,14458 9517,14458 9489,14458 9434,14444 9379,14430 9324,14417 9311,14403 9297,14389 9283,14376 9283,14362 9283,14348 9283,14334 8900,14155 8516,13977 8132,13799 8077,13744 8022,13689 7968,13634 7885,13510 7803,13387 7721,13264 7707,13195 7693,13126 7680,13058 7680,12920 7680,12783 7680,12646 7707,12522 7734,12398 7762,12275 7789,12220 7816,12165 7844,12111 7871,12083 7899,12055 7927,12028 7954,11973 7981,11918 8009,11863 8009,11849 8009,11835 8009,11822 8036,11794 8063,11767 8091,11740 8132,11726 8173,11712 8215,11699 Z M 8256,12193 C 8283,12220 8310,12247 8338,12275 8516,12604 8694,12934 8873,13264 8982,13456 9092,13648 9202,13840 9202,13853 9202,13867 9202,13881 9106,13785 9010,13689 8914,13593 8886,13552 8859,13511 8832,13470 8832,13456 8832,13442 8832,13428 8818,13400 8804,13373 8790,13346 8762,13304 8735,13263 8708,13222 8598,13002 8488,12783 8379,12564 8365,12522 8351,12481 8338,12440 8324,12412 8310,12385 8297,12358 8283,12344 8269,12330 8256,12316 8256,12275 8256,12234 8256,12193 Z M 9489,24381 C 9544,24381 9599,24381 9653,24381 9736,24395 9818,24409 9900,24423 9914,24437 9928,24450 9941,24464 9941,24519 9941,24574 9941,24629 9928,24643 9914,24656 9900,24670 9873,24670 9846,24670 9818,24670 9805,24684 9791,24697 9777,24711 9777,24780 9777,24848 9777,24917 9791,24931 9805,24944 9818,24958 9818,25219 9818,25479 9818,25740 9832,25795 9846,25850 9859,25905 9873,25919 9887,25932 9900,25946 9928,25946 9955,25946 9982,25946 9996,25960 10010,25974 10024,25988 10024,26043 10024,26097 10024,26152 10010,26166 9996,26179 9982,26193 9749,26193 9516,26193 9283,26193 9270,26179 9256,26166 9243,26152 9243,26097 9243,26043 9243,25988 9256,25974 9270,25960 9283,25946 9311,25946 9338,25946 9365,25946 9379,25932 9393,25919 9407,25905 9407,25685 9407,25466 9407,25246 9393,25219 9379,25191 9365,25164 9352,25178 9338,25191 9324,25205 9311,25232 9297,25260 9283,25287 9201,25548 9119,25809 9037,26070 9023,26084 9009,26097 8996,26111 8886,26111 8776,26111 8667,26111 8653,26097 8639,26084 8626,26070 8530,25809 8434,25548 8338,25287 8338,25260 8338,25232 8338,25205 8324,25191 8310,25178 8297,25164 8283,25219 8269,25274 8256,25329 8256,25521 8256,25713 8256,25905 8269,25919 8283,25932 8297,25946 8324,25946 8351,25946 8379,25946 8392,25960 8406,25974 8420,25988 8420,26043 8420,26097 8420,26152 8406,26166 8392,26179 8379,26193 8173,26193 7967,26193 7762,26193 7748,26179 7734,26166 7721,26152 7721,26097 7721,26043 7721,25988 7734,25974 7748,25960 7762,25946 7789,25946 7816,25946 7844,25946 7857,25932 7871,25919 7885,25905 7912,25507 7940,25109 7968,24711 7954,24697 7940,24684 7927,24670 7885,24670 7844,24670 7803,24670 7789,24656 7775,24643 7762,24629 7762,24574 7762,24519 7762,24464 7775,24450 7789,24437 7803,24423 8022,24423 8241,24423 8461,24423 8488,24450 8516,24478 8544,24505 8544,24532 8544,24560 8544,24587 8640,24862 8736,25136 8832,25411 8845,25425 8859,25438 8873,25452 8886,25438 8900,25425 8914,25411 9023,25109 9133,24807 9243,24505 9243,24491 9243,24478 9243,24464 9256,24450 9270,24437 9283,24423 9352,24409 9421,24395 9489,24381 Z M 11422,24381 C 11546,24381 11669,24381 11792,24381 11916,24436 12040,24491 12163,24546 12218,24601 12273,24656 12327,24711 12355,24752 12383,24793 12410,24834 12410,24862 12410,24889 12410,24917 12424,24958 12438,24999 12451,25040 12465,25054 12479,25068 12492,25082 12492,25233 12492,25384 12492,25535 12479,25590 12465,25644 12451,25699 12438,25727 12424,25754 12410,25782 12383,25823 12355,25864 12327,25905 12259,25974 12191,26042 12122,26111 11999,26166 11875,26221 11751,26276 11683,26276 11615,26276 11546,26276 11395,26207 11244,26139 11093,26070 11039,26015 10984,25960 10929,25905 10874,25782 10819,25658 10764,25535 10764,25384 10764,25233 10764,25082 10778,25041 10792,24999 10805,24958 10833,24903 10860,24848 10887,24793 10915,24752 10943,24711 10970,24670 11025,24615 11080,24560 11134,24505 11230,24464 11326,24422 11422,24381 Z M 3402,24423 C 3662,24423 3923,24423 4183,24423 4197,24437 4210,24450 4224,24464 4224,24519 4224,24574 4224,24629 4210,24643 4197,24656 4183,24670 4128,24684 4074,24697 4019,24711 4005,24711 3991,24711 3977,24711 3977,25095 3977,25480 3977,25864 3991,25878 4005,25891 4019,25905 4033,25891 4046,25878 4060,25864 4101,25864 4142,25864 4183,25864 4197,25878 4210,25891 4224,25905 4265,25905 4307,25905 4348,25905 4362,25891 4375,25878 4389,25864 4430,25782 4471,25699 4512,25617 4553,25576 4595,25534 4636,25493 4677,25493 4718,25493 4759,25493 4773,25507 4786,25521 4800,25535 4800,25631 4800,25727 4800,25823 4786,25905 4773,25988 4759,26070 4745,26097 4732,26125 4718,26152 4704,26166 4691,26179 4677,26193 4252,26193 3827,26193 3402,26193 3388,26179 3374,26166 3360,26152 3360,26097 3360,26043 3360,25988 3374,25974 3388,25960 3402,25946 3429,25946 3457,25946 3484,25946 3498,25932 3511,25919 3525,25905 3525,25493 3525,25082 3525,24670 3484,24670 3443,24670 3402,24670 3388,24656 3374,24643 3360,24629 3360,24574 3360,24519 3360,24464 3374,24450 3388,24437 3402,24423 Z M 5541,24423 C 5979,24423 6418,24423 6857,24423 6870,24437 6884,24450 6898,24464 6911,24491 6925,24519 6939,24546 6939,24683 6939,24821 6939,24958 6925,24972 6911,24985 6898,24999 6829,24999 6761,24999 6693,24999 6679,24985 6665,24972 6651,24958 6623,24876 6596,24793 6569,24711 6432,24711 6295,24711 6158,24711 6144,24738 6130,24766 6117,24793 6117,24875 6117,24958 6117,25040 6130,25068 6144,25095 6158,25123 6322,25123 6486,25123 6651,25123 6665,25137 6679,25150 6693,25164 6693,25233 6693,25301 6693,25370 6665,25397 6637,25425 6610,25452 6459,25452 6308,25452 6158,25452 6158,25603 6158,25754 6158,25905 6226,25905 6294,25905 6363,25905 6377,25891 6391,25878 6405,25864 6432,25864 6459,25864 6487,25864 6500,25878 6514,25891 6528,25905 6541,25905 6555,25905 6569,25905 6582,25891 6596,25878 6610,25864 6623,25837 6637,25809 6651,25782 6651,25768 6651,25754 6651,25740 6678,25699 6706,25658 6734,25617 6747,25603 6761,25590 6775,25576 6829,25576 6884,25576 6939,25576 6952,25590 6966,25603 6980,25617 6980,25741 6980,25864 6980,25988 6966,26043 6952,26097 6939,26152 6925,26166 6911,26179 6898,26193 6445,26193 5993,26193 5541,26193 5527,26179 5513,26166 5500,26152 5500,26111 5500,26070 5500,26029 5527,26001 5554,25974 5582,25946 5609,25932 5636,25919 5664,25905 5677,25905 5691,25905 5705,25905 5705,25507 5705,25109 5705,24711 5691,24697 5677,24684 5664,24670 5636,24670 5609,24670 5582,24670 5554,24642 5527,24615 5500,24587 5500,24546 5500,24505 5500,24464 5513,24450 5527,24437 5541,24423 Z M 13273,24423 C 13424,24423 13575,24423 13726,24423 13767,24464 13808,24505 13849,24546 14041,24821 14233,25095 14425,25370 14453,25397 14480,25425 14508,25452 14508,25205 14508,24958 14508,24711 14494,24697 14480,24684 14466,24670 14439,24670 14411,24670 14384,24670 14370,24656 14357,24643 14343,24629 14343,24574 14343,24519 14343,24464 14357,24450 14370,24437 14384,24423 14576,24423 14768,24423 14960,24423 14987,24450 15015,24478 15042,24505 15042,24532 15042,24560 15042,24587 15015,24615 14987,24642 14960,24670 14933,24684 14905,24697 14878,24711 14864,24725 14851,24738 14837,24752 14837,24821 14837,24889 14837,24958 14851,24972 14864,24985 14878,24999 14878,25150 14878,25301 14878,25452 14864,25466 14851,25479 14837,25493 14837,25685 14837,25878 14837,26070 14851,26084 14864,26097 14878,26111 14878,26125 14878,26138 14878,26152 14864,26166 14851,26179 14837,26193 14741,26193 14645,26193 14549,26193 14508,26152 14466,26111 14425,26070 14425,26056 14425,26043 14425,26029 14329,25892 14233,25754 14137,25617 14082,25562 14028,25507 13973,25452 13945,25411 13918,25370 13890,25329 13890,25315 13890,25301 13890,25287 13849,25246 13808,25205 13767,25164 13767,25411 13767,25658 13767,25905 13794,25919 13822,25932 13849,25946 13877,25946 13904,25946 13932,25946 13946,25960 13959,25974 13973,25988 13973,26043 13973,26097 13973,26152 13959,26166 13946,26179 13932,26193 13726,26193 13521,26193 13315,26193 13287,26166 13260,26138 13232,26111 13232,26084 13232,26056 13232,26029 13260,26001 13287,25974 13315,25946 13342,25932 13370,25919 13397,25905 13411,25905 13424,25905 13438,25905 13438,25507 13438,25109 13438,24711 13411,24697 13383,24684 13356,24670 13342,24670 13329,24670 13315,24670 13287,24642 13260,24615 13232,24587 13232,24546 13232,24505 13232,24464 13246,24450 13259,24437 13273,24423 Z M 11587,24670 C 11642,24684 11697,24697 11751,24711 11806,24766 11861,24821 11916,24876 11944,24958 11971,25041 11998,25123 11998,25288 11998,25452 11998,25617 11985,25631 11971,25644 11957,25658 11944,25699 11930,25741 11916,25782 11916,25796 11916,25809 11916,25823 11903,25837 11889,25850 11875,25864 11848,25878 11820,25891 11792,25905 11697,25905 11601,25905 11505,25905 11450,25850 11395,25795 11340,25740 11340,25726 11340,25713 11340,25699 11327,25644 11313,25590 11299,25535 11286,25521 11272,25507 11258,25493 11258,25342 11258,25191 11258,25040 11272,24985 11286,24931 11299,24876 11313,24848 11327,24821 11340,24793 11354,24779 11368,24766 11381,24752 11395,24752 11409,24752 11422,24752 11464,24738 11505,24725 11546,24711 11560,24697 11574,24684 11587,24670 Z"/>
    <path fill="none" stroke="rgb(73,94,87)" d="M 6199,5151 L 6240,5151 6281,5192 6281,5357 6199,5439 6117,5439 6117,6634 6199,6634 6281,6716 6281,6881 6240,6922 5541,6922 5500,6881 5500,6716 5541,6675 5623,6634 5664,6634 5664,6016 5705,5975 5705,5933 5664,5892 5664,5439 5582,5439 5500,5357 5500,5233 5541,5192 6158,5192 6199,5151 Z"/>
    <path fill="none" stroke="rgb(73,94,87)" d="M 7063,5151 L 7104,5192 7310,5192 7351,5151 7474,5151 7515,5192 7968,5192 8009,5151 8379,5151 8461,5233 8503,5316 8503,5728 8420,5810 8297,5810 8215,5728 8132,5522 8132,5480 7968,5480 7968,6386 7927,6428 7927,6510 8132,6716 8132,6881 8091,6922 7351,6922 7310,6881 7310,6716 7351,6675 7392,6675 7515,6634 7515,5480 7351,5480 7310,5522 7310,5563 7227,5728 7145,5810 7022,5810 6980,5769 6980,5233 7063,5151 Z"/>
    <path fill="none" stroke="rgb(73,94,87)" d="M 9202,5151 L 9243,5151 9283,5192 9365,5192 9407,5151 9612,5151 9653,5192 10188,5192 10229,5151 10270,5151 10312,5192 10600,5192 10641,5233 10641,5769 10600,5810 10517,5810 10435,5769 10394,5728 10353,5645 10312,5522 10312,5480 10106,5480 10106,6634 10147,6634 10270,6675 10312,6716 10312,6839 10229,6922 9530,6922 9489,6881 9489,6716 9530,6675 9612,6634 9653,6634 9695,6592 9695,6510 9653,6469 9653,6263 9695,6222 9695,5645 9653,5480 9489,5480 9448,5563 9407,5686 9407,5728 9324,5810 9243,5810 9161,5769 9120,5728 9120,5357 9161,5192 9202,5151 Z"/>
    <path fill="none" stroke="rgb(73,94,87)" d="M 12039,5151 L 12122,5151 12204,5233 12163,5357 12080,5439 11957,5439 11916,5563 11916,5810 11957,5851 11957,6016 11916,6057 11916,6222 11957,6634 12039,6634 12080,6592 12327,6592 12368,6551 12368,6510 12410,6386 12574,6222 12656,6222 12739,6304 12739,6634 12698,6839 12615,6922 11628,6922 11587,6881 11546,6881 11505,6922 11381,6922 11340,6881 11340,6716 11381,6675 11463,6634 11505,6634 11505,5439 11381,5439 11340,5398 11340,5233 11381,5192 11998,5192 12039,5151 Z"/>
    <path fill="none" stroke="rgb(73,94,87)" d="M 13561,5151 L 13808,5151 13849,5192 13932,5192 13973,5151 14096,5151 14137,5192 14754,5192 14795,5233 14837,5480 14795,5686 14754,5728 14590,5728 14549,5686 14549,5645 14466,5480 14055,5480 14055,5851 14508,5851 14590,5933 14590,5975 14549,6139 14508,6181 14055,6181 14055,6592 14466,6592 14508,6551 14508,6510 14549,6428 14672,6304 14837,6304 14878,6345 14878,6510 14837,6798 14795,6881 14754,6922 14466,6922 14425,6881 14302,6881 14261,6922 13479,6922 13438,6881 13438,6716 13479,6675 13520,6675 13603,6634 13603,5439 13561,5439 13479,5398 13438,5357 13438,5233 13479,5192 13561,5151 Z"/>
    <path fill="none" stroke="rgb(73,94,87)" d="M 3443,5192 L 4224,5192 4265,5233 4265,5275 4224,5357 4142,5439 4019,5439 4019,6592 4389,6592 4430,6551 4512,6428 4553,6345 4553,6304 4636,6222 4759,6222 4841,6304 4841,6345 4800,6386 4800,6716 4759,6839 4677,6922 3484,6922 3402,6839 3402,6716 3443,6675 3525,6634 3566,6634 3566,5439 3484,5439 3402,5357 3402,5233 3443,5192 Z"/>
    <path fill="none" stroke="rgb(73,94,87)" d="M 3402,8651 L 3895,8651 3936,8693 4019,8693 4060,8651 4224,8651 4265,8693 5458,8693 5500,8651 5541,8651 5582,8693 5787,8693 5829,8651 5870,8651 5911,8693 6651,8693 6693,8651 6734,8651 6775,8693 6939,8693 6980,8651 7145,8651 7186,8693 7268,8693 7310,8651 7968,8651 8009,8693 8173,8693 8215,8651 8379,8651 8420,8693 9037,8693 9078,8651 9243,8651 9283,8693 9612,8693 9653,8651 9941,8651 9982,8693 10188,8693 10229,8651 10394,8651 10435,8693 11381,8693 11422,8651 11710,8651 11751,8693 11916,8693 11957,8651 13273,8651 13315,8693 13808,8693 13849,8651 14014,8651 14055,8693 14137,8693 14178,8651 14508,8651 14549,8693 14672,8693 14713,8651 14878,8651 15042,8693 15125,8775 15207,9022 15207,9104 15166,9146 15125,9146 15125,9599 15207,9681 15207,9928 15125,10010 15125,10299 15207,10381 15207,10628 15166,10669 15125,10669 15125,11946 15207,12028 15207,12193 15166,12234 15125,12234 15125,13222 15166,13222 15207,13264 15207,13552 15166,13593 15125,13593 15125,13758 15207,13840 15207,14087 15125,14170 15125,14540 15207,14623 15207,14705 15125,14787 15125,15282 15207,15364 15207,16022 15166,16063 15125,16063 15125,17134 15207,17216 15207,17340 15125,17422 15125,17545 15207,17628 15207,17875 15125,17957 15125,18946 15166,18987 15166,19028 15125,19069 15125,20469 15001,20593 14878,20593 14754,20469 14754,17875 14795,17834 14795,17710 14754,17669 14754,17340 14795,17298 14795,17257 14754,17216 14754,15981 14795,15939 14795,15816 14754,15775 14754,15652 14795,15611 14795,15405 14754,15282 14713,15240 14713,15199 14754,15158 14754,14087 14795,14046 14795,13881 14754,13840 14754,13511 14795,13470 14795,13346 14754,13305 14754,10999 14713,10958 14713,10916 14754,10875 14754,10587 14795,10546 14795,10463 14754,10422 14754,9887 14795,9846 14754,9063 14425,9022 14261,9022 14220,9063 12985,9063 12944,9022 12821,9022 12780,9063 12656,9063 12615,9022 12451,9022 12410,9063 11628,9063 11587,9022 11505,9022 11463,9063 9859,9063 9818,9022 9777,9022 9736,9063 7927,9063 7885,9022 7721,9022 7680,9063 3525,9063 3360,9022 3319,8981 3278,8898 3278,8775 3402,8651 Z"/>
    <path fill="none" stroke="rgb(73,94,87)" d="M 3402,10710 L 3566,10710 3648,10793 3648,11452 3690,11493 3690,11699 3648,11740 3648,12481 3690,12522 3690,12687 3648,12728 3648,13387 3690,13428 3690,13511 3648,13552 3648,16351 3690,16392 3690,16475 3648,16516 3648,16845 3690,16887 3690,17010 3648,17051 3648,18410 3690,18451 3690,18493 3648,18534 3648,18699 3690,18740 3690,18863 3648,18904 3648,22240 4430,22240 4471,22199 4512,22199 4553,22240 4718,22240 4759,22199 5088,22199 5129,22240 5458,22240 5500,22199 5582,22199 5623,22240 6610,22240 6651,22199 6816,22199 6857,22240 6980,22240 7022,22199 7310,22199 7515,22240 7556,22281 7598,22281 7639,22240 8338,22240 8379,22199 8544,22199 8585,22240 8832,22240 8873,22199 9078,22199 9120,22240 9202,22240 9243,22199 9324,22199 9365,22240 9900,22240 9941,22281 10024,22281 10065,22240 10435,22199 11134,22199 11175,22240 11217,22240 11258,22199 11422,22199 11463,22240 11628,22240 11669,22199 11751,22199 11792,22240 11957,22240 11998,22199 12122,22199 12163,22240 12327,22240 12368,22199 12410,22199 12451,22240 13479,22240 13520,22199 13808,22199 13849,22240 14343,22240 14384,22199 14919,22240 15042,22281 15125,22364 15125,22528 15042,22611 14960,22652 14919,22652 14878,22611 13767,22611 13726,22570 13603,22570 13561,22611 13438,22652 13397,22652 13356,22611 12780,22611 12739,22652 12574,22652 12533,22611 11052,22611 11011,22570 10970,22570 10929,22611 10188,22611 10147,22652 9859,22652 9818,22611 7680,22611 7639,22652 7515,22652 7268,22611 4924,22611 4882,22570 4841,22570 4800,22611 3402,22611 3278,22487 3278,21046 3237,21005 3237,20840 3278,20799 3278,19399 3237,19357 3237,19275 3278,19234 3278,17875 3237,17834 3237,17669 3278,17628 3278,17587 3237,17545 3237,17422 3278,17381 3278,16310 3237,16269 3237,16186 3278,16145 3278,14787 3237,14746 3237,14623 3278,14581 3278,11658 3319,11616 3319,11534 3278,11493 3278,10834 3402,10710 Z"/>
    <path fill="none" stroke="rgb(73,94,87)" d="M 9243,11122 L 9859,11122 10887,11452 11011,11575 11052,11699 11052,11740 10970,11822 10805,11946 10517,12069 9571,12316 9736,12481 9900,12564 10394,12893 10805,13264 10929,13428 10929,13470 11011,13552 11052,13552 11093,13593 11093,13634 11134,13717 11299,13964 11340,14087 11381,14170 11463,14252 11546,14417 11792,15199 11875,16104 11834,16392 11792,16434 11792,16475 11834,16516 11834,16639 11669,17504 11340,18493 11299,18575 11217,18657 11175,18740 11093,19028 10970,19193 10929,19275 10846,19563 10805,20016 10723,20099 10394,20099 10229,19934 10147,19893 10106,19893 10024,19810 10024,19769 9982,19728 9941,19728 9777,19687 9653,19605 8832,19316 8667,19234 8544,19152 8461,19069 8461,19028 8338,18904 8297,18904 8173,18822 7680,18287 7680,18246 7598,18163 7556,18163 7515,18122 7227,17628 7104,17504 7022,17381 7022,17340 6980,17257 6898,17175 6610,16145 6569,15693 6610,15652 6610,15487 6569,15446 6528,15282 6528,15240 6569,15199 6569,14911 6610,14870 6610,14787 6569,14746 6569,14664 6610,14623 6775,14252 6775,14128 6816,13964 6857,13881 6980,13758 7433,12687 7556,11987 7598,11905 7762,11740 7885,11658 7927,11658 7968,11699 7968,11740 7885,11822 7803,11987 7556,12728 7556,12975 7639,13305 7680,13387 7803,13552 7927,13758 7968,13799 8091,13881 8132,13881 8297,13964 8379,14046 9489,14581 9653,14540 9695,14499 9736,14417 9695,13593 9612,13099 9571,12975 9407,12646 8873,12111 8832,12111 8749,12028 8749,11987 8626,11863 8585,11863 8461,11740 8420,11658 8461,11616 9653,11616 9695,11575 9859,11575 9900,11616 10065,11616 10106,11575 9941,11534 9653,11493 9037,11493 8626,11534 8461,11575 8379,11616 8338,11658 8297,11616 8503,11411 9243,11122 Z"/>
    <path fill="none" stroke="rgb(73,94,87)" d="M 8215,11699 L 8338,11740 8832,12234 8873,12234 8955,12316 8955,12358 9365,12769 9365,12811 9407,12934 9489,13017 9571,13511 9571,14087 9612,14293 9653,14334 9653,14376 9571,14458 9489,14458 9324,14417 9283,14376 9283,14334 8132,13799 7968,13634 7721,13264 7680,13058 7680,12646 7762,12275 7844,12111 7927,12028 8009,11863 8009,11822 8091,11740 8215,11699 Z"/>
    <path fill="none" stroke="rgb(73,94,87)" d="M 8256,12193 L 8338,12275 8873,13264 9202,13840 9202,13881 8914,13593 8832,13470 8832,13428 8790,13346 8708,13222 8379,12564 8338,12440 8297,12358 8256,12316 8256,12193 Z"/>
    <path fill="none" stroke="rgb(73,94,87)" d="M 9489,24381 L 9653,24381 9900,24423 9941,24464 9941,24629 9900,24670 9818,24670 9777,24711 9777,24917 9818,24958 9818,25740 9859,25905 9900,25946 9982,25946 10024,25988 10024,26152 9982,26193 9283,26193 9243,26152 9243,25988 9283,25946 9365,25946 9407,25905 9407,25246 9365,25164 9324,25205 9283,25287 9037,26070 8996,26111 8667,26111 8626,26070 8338,25287 8338,25205 8297,25164 8256,25329 8256,25905 8297,25946 8379,25946 8420,25988 8420,26152 8379,26193 7762,26193 7721,26152 7721,25988 7762,25946 7844,25946 7885,25905 7968,24711 7927,24670 7803,24670 7762,24629 7762,24464 7803,24423 8461,24423 8544,24505 8544,24587 8832,25411 8873,25452 8914,25411 9243,24505 9243,24464 9283,24423 9489,24381 Z"/>
    <path fill="none" stroke="rgb(73,94,87)" d="M 11422,24381 L 11792,24381 12163,24546 12327,24711 12410,24834 12410,24917 12451,25040 12492,25082 12492,25535 12451,25699 12410,25782 12327,25905 12122,26111 11751,26276 11546,26276 11093,26070 10929,25905 10764,25535 10764,25082 10805,24958 10887,24793 10970,24670 11134,24505 11422,24381 Z"/>
    <path fill="none" stroke="rgb(73,94,87)" d="M 3402,24423 L 4183,24423 4224,24464 4224,24629 4183,24670 4019,24711 3977,24711 3977,25864 4019,25905 4060,25864 4183,25864 4224,25905 4348,25905 4389,25864 4512,25617 4636,25493 4759,25493 4800,25535 4800,25823 4759,26070 4718,26152 4677,26193 3402,26193 3360,26152 3360,25988 3402,25946 3484,25946 3525,25905 3525,24670 3402,24670 3360,24629 3360,24464 3402,24423 Z"/>
    <path fill="none" stroke="rgb(73,94,87)" d="M 5541,24423 L 6857,24423 6898,24464 6939,24546 6939,24958 6898,24999 6693,24999 6651,24958 6569,24711 6158,24711 6117,24793 6117,25040 6158,25123 6651,25123 6693,25164 6693,25370 6610,25452 6158,25452 6158,25905 6363,25905 6405,25864 6487,25864 6528,25905 6569,25905 6610,25864 6651,25782 6651,25740 6734,25617 6775,25576 6939,25576 6980,25617 6980,25988 6939,26152 6898,26193 5541,26193 5500,26152 5500,26029 5582,25946 5664,25905 5705,25905 5705,24711 5664,24670 5582,24670 5500,24587 5500,24464 5541,24423 Z"/>
    <path fill="none" stroke="rgb(73,94,87)" d="M 13273,24423 L 13726,24423 13849,24546 14425,25370 14508,25452 14508,24711 14466,24670 14384,24670 14343,24629 14343,24464 14384,24423 14960,24423 15042,24505 15042,24587 14960,24670 14878,24711 14837,24752 14837,24958 14878,24999 14878,25452 14837,25493 14837,26070 14878,26111 14878,26152 14837,26193 14549,26193 14425,26070 14425,26029 14137,25617 13973,25452 13890,25329 13890,25287 13767,25164 13767,25905 13849,25946 13932,25946 13973,25988 13973,26152 13932,26193 13315,26193 13232,26111 13232,26029 13315,25946 13397,25905 13438,25905 13438,24711 13356,24670 13315,24670 13232,24587 13232,24464 13273,24423 Z"/>
    <path fill="none" stroke="rgb(73,94,87)" d="M 11587,24670 L 11751,24711 11916,24876 11998,25123 11998,25617 11957,25658 11916,25782 11916,25823 11875,25864 11792,25905 11505,25905 11340,25740 11340,25699 11299,25535 11258,25493 11258,25040 11299,24876 11340,24793 11381,24752 11422,24752 11546,24711 11587,24670 Z"/>
   </g>
  </g>
 </g>
</svg>